<?xml version="1.0" encoding="UTF-8"?>
<svg width="30px" height="24px" viewBox="0 0 30 26" version="1.1" xmlns="http://www.w3.org/2000/svg" xmlns:xlink="http://www.w3.org/1999/xlink">
    <title>Arrow_Forward</title>
    <defs>
        <filter x="-11.7%" y="-9.4%" width="123.4%" height="118.8%" filterUnits="objectBoundingBox" id="filter-1">
            <feOffset dx="0" dy="2" in="SourceAlpha" result="shadowOffsetOuter1"></feOffset>
            <feGaussianBlur stdDeviation="4.5" in="shadowOffsetOuter1" result="shadowBlurOuter1"></feGaussianBlur>
            <feColorMatrix values="0 0 0 0 0   0 0 0 0 0   0 0 0 0 0  0 0 0 0.2 0" type="matrix" in="shadowBlurOuter1" result="shadowMatrixOuter1"></feColorMatrix>
            <feMerge>
                <feMergeNode in="shadowMatrixOuter1"></feMergeNode>
                <feMergeNode in="SourceGraphic"></feMergeNode>
            </feMerge>
        </filter>
    </defs>
    <g id="Welcome" stroke="none" stroke-width="1" fill="none" fill-rule="evenodd">
        <g id="Summer-Sale-Desktop" transform="translate(-870.000000, -222.000000)" fill="#272727">
            <g id="Group-36" transform="translate(537.000000, 198.000000)">
                <g id="Group-10" filter="url(#filter-1)" transform="translate(198.000000, 0.000000)">
                    <g id="iconfinder_Arrow_Forward_1063879" transform="translate(143.018182, 30.162498)">
                        <path d="M13.8297069,4.76048927 C13.8297069,4.64503236 13.7821673,4.53476454 13.7030787,4.45173935 L9.42494526,0.127943165 C9.25596352,-0.0428638647 8.98239463,-0.0424314418 8.81384508,0.127943165 C8.64486335,0.298317772 8.64486335,0.575068403 8.81384508,0.74544301 L12.3546822,4.32374218 L0.432178341,4.32374218 C0.193615897,4.32374218 0,4.51919731 0,4.76048927 C0,5.00178122 0.193615897,5.19723636 0.432178341,5.19723636 L12.35425,5.19723636 L8.81384508,8.77553553 C8.64486335,8.94591013 8.64529553,9.22266076 8.81384508,9.39303537 C8.98282681,9.56340998 9.2563957,9.56340998 9.42494526,9.39303537 L13.7030787,5.06923919 C13.783896,4.98751127 13.8284104,4.87508133 13.8297069,4.76048927 Z" id="Arrow_Forward"></path>
                    </g>
                </g>
            </g>
        </g>
    </g>
</svg>