<?xml version="1.0" encoding="UTF-8"?>
<svg width="20px" height="20px" viewBox="0 0 20 20" version="1.1" xmlns="http://www.w3.org/2000/svg" xmlns:xlink="http://www.w3.org/1999/xlink">
    <title>Shape</title>
    <g id="Welcome" stroke="none" stroke-width="1" fill="none" fill-rule="evenodd">
        <g id="Summer-Sale-Desktop" transform="translate(-1080.000000, -98.000000)" fill="#FFFFFF" fill-rule="nonzero" stroke="#FFFFFF" stroke-width="0.3">
            <g id="Hero" transform="translate(-1.000000, 67.000000)">
                <g id="HEADER" transform="translate(39.000000, 26.000000)">
                    <g id="Group-8" transform="translate(1043.000000, 1.000000)">
                        <g id="iconfinder_search_298865" transform="translate(0.000000, 5.000000)">
                            <path d="M17.7156,16.3395262 L13.3738,11.9975332 C14.3422,10.7394773 14.9176,9.1664074 14.9176,7.45913152 C14.9176,3.34654874 11.5712,0 7.4588,0 C3.3464,-0.000200008889 0,3.34634873 0,7.45893151 C0,11.5715143 3.3464,14.918063 7.4588,14.918063 C9.164,14.918063 10.741,14.3424374 11.999,13.3741944 L16.3408,17.7161874 C16.5294,17.9047958 16.7782,18 17.0272,18 C17.276,18 17.525,17.9047958 17.7156,17.7161874 C18.0948,17.3351705 18.0948,16.7207431 17.7156,16.3395262 Z M2,7.5 C2,4.4669411 4.4669411,2 7.5,2 C10.5330589,2 13,4.46674162 13,7.5 C13,10.5332584 10.5330589,13 7.5,13 C4.4669411,13 2,10.5332584 2,7.5 Z" id="Shape"></path>
                        </g>
                    </g>
                </g>
            </g>
        </g>
    </g>
</svg>