<?xml version="1.0" encoding="UTF-8"?>
<svg width="24px" height="21px" viewBox="0 0 24 21" version="1.1" xmlns="http://www.w3.org/2000/svg" xmlns:xlink="http://www.w3.org/1999/xlink">
    <title>iconfinder_iconoteka_shopping_basket_b_s_3507743</title>
    <g id="Welcome" stroke="none" stroke-width="1" fill="none" fill-rule="evenodd">
        <g id="Summer-Sale-Desktop" transform="translate(-1319.000000, -96.000000)" fill="#FFFFFF" fill-rule="nonzero" stroke="#FFFFFF" stroke-width="0.4">
            <g id="Hero" transform="translate(-1.000000, 67.000000)">
                <g id="HEADER" transform="translate(39.000000, 26.000000)">
                    <g id="Group-8" transform="translate(1043.000000, 1.000000)">
                        <g id="iconfinder_iconoteka_shopping_basket_b_s_3507743" transform="translate(239.000000, 3.000000)">
                            <path d="M14.93,6.02535063 L13.5,0.705744386 C13.3409829,0.190612238 12.8008701,-0.105428662 12.28,0.0370509188 C11.7477232,0.178496245 11.4302753,0.722906362 11.57,1.25467186 L12.86,6.02535063 L9.14,6.02535063 L10.43,1.22473036 C10.5522872,0.700868166 10.2366208,0.17452036 9.71623529,0.0345862809 C9.1958498,-0.105347798 8.65796301,0.191475588 8.5,0.705744386 L7.07,6.02535063 L0,6.02535063 L0,7.92164554 L2.94,19 L19.06,19 L22,8.18113852 L22,6.02535063 L14.93,6.02535063 Z M17.53,17.0039001 L4.47,17.0039001 L2.06,8.02145053 L19.94,8.02145053 L17.53,17.0039001 Z" id="Shape"></path>
                        </g>
                    </g>
                </g>
            </g>
        </g>
    </g>
</svg>