<?xml version="1.0" encoding="UTF-8"?>
<svg width="19px" height="21px" viewBox="0 0 19 21" version="1.1" xmlns="http://www.w3.org/2000/svg" xmlns:xlink="http://www.w3.org/1999/xlink">
    <title>iconfinder_user_925901</title>
    <g id="Welcome" stroke="none" stroke-width="1" fill="none" fill-rule="evenodd">
        <g id="Summer-Sale-Desktop" transform="translate(-1208.000000, -97.000000)" fill="#FFFFFF" fill-rule="nonzero" stroke="#FFFFFF">
            <g id="Hero" transform="translate(-1.000000, 67.000000)">
                <g id="HEADER" transform="translate(39.000000, 26.000000)">
                    <g id="Group-8" transform="translate(1043.000000, 1.000000)">
                        <g id="Group-9" transform="translate(128.000000, 0.000000)">
                            <g id="iconfinder_user_925901" transform="translate(0.000000, 4.000000)">
                                <path d="M8.5,10 C6.01859956,10 4,7.75629332 4,4.99817585 C4,2.24005837 6.01859956,0 8.5,0 C10.9814004,0 13,2.24370668 13,5.00182415 C13,7.75994163 10.9814004,10 8.5,10 Z M8.5,0.744253922 C6.38949672,0.744253922 4.67286652,2.65231667 4.67286652,4.99817585 C4.67286652,7.34403502 6.38949672,9.25574608 8.5,9.25574608 C10.6105033,9.25574608 12.3271335,7.34768333 12.3271335,5.00182415 C12.3271335,2.65596498 10.6105033,0.744253922 8.5,0.744253922 Z" id="Shape"></path>
                                <path d="M16.6436921,19 C16.4518339,19 16.2942362,18.8397213 16.2942362,18.6445993 C16.2942362,14.271777 12.7962515,10.7142857 8.49657396,10.7142857 C4.19689641,10.7142857 0.698911729,14.271777 0.698911729,18.6445993 C0.698911729,18.8397213 0.541313986,19 0.349455865,19 C0.157597743,19 0,18.8397213 0,18.6445993 C0,16.3344948 0.883917775,14.1637631 2.49072954,12.533101 C4.09754131,10.902439 6.23196292,10 8.5,10 C10.7680371,10 12.9058847,10.8989547 14.5092705,12.533101 C16.1126562,14.1672474 17,16.3379791 17,18.6445993 C16.9931479,18.8397213 16.8355502,19 16.6436921,19 Z" id="Path"></path>
                            </g>
                        </g>
                    </g>
                </g>
            </g>
        </g>
    </g>
</svg>